<?xml version="1.0" encoding="UTF-8"?>
<svg id="Layer_1" xmlns="http://www.w3.org/2000/svg" version="1.1" xmlns:xlink="http://www.w3.org/1999/xlink" viewBox="0 0 500 500">
  <!-- Generator: Adobe Illustrator 29.1.0, SVG Export Plug-In . SVG Version: 2.1.0 Build 142)  -->
  <defs>
    <style>
      .st0 {
        fill: url(#linear-gradient2);
      }

      .st1 {
        fill: url(#linear-gradient1);
      }

      .st2 {
        fill: url(#radial-gradient1);
      }

      .st2, .st3 {
        isolation: isolate;
        opacity: .9;
      }

      .st4 {
        fill: url(#linear-gradient7);
      }

      .st5 {
        fill: url(#linear-gradient4);
      }

      .st6 {
        fill: url(#linear-gradient5);
      }

      .st7 {
        fill: url(#linear-gradient3);
      }

      .st8 {
        fill: url(#linear-gradient6);
      }

      .st3 {
        fill: url(#radial-gradient);
      }

      .st9 {
        fill: url(#linear-gradient);
      }

      .st10 {
        opacity: .5;
      }
    </style>
    <radialGradient id="radial-gradient" cx="-24.4" cy="687.8" fx="-24.4" fy="687.8" r="17.9" gradientTransform="translate(-10411 590.8) rotate(90.1) scale(15.5 -15.5)" gradientUnits="userSpaceOnUse">
      <stop offset="0" stop-color="#fafafa"/>
      <stop offset=".5" stop-color="#efefef"/>
      <stop offset=".8" stop-color="#c0bec0"/>
      <stop offset="1" stop-color="#879288"/>
    </radialGradient>
    <linearGradient id="linear-gradient" x1="145.5" y1="449.7" x2="149.7" y2="305.8" gradientTransform="translate(0 499.9) scale(1 -1)" gradientUnits="userSpaceOnUse">
      <stop offset="0" stop-color="#008b00"/>
      <stop offset="1" stop-color="#6cc329"/>
    </linearGradient>
    <linearGradient id="linear-gradient1" x1="88.7" y1="267.9" x2="137.3" y2="201.2" gradientTransform="translate(0 499.9) scale(1 -1)" gradientUnits="userSpaceOnUse">
      <stop offset="0" stop-color="#008c00"/>
      <stop offset="1" stop-color="#48bf21"/>
    </linearGradient>
    <linearGradient id="linear-gradient2" x1="355" y1="449.7" x2="350.8" y2="305.8" gradientTransform="translate(0 499.9) scale(1 -1)" gradientUnits="userSpaceOnUse">
      <stop offset="0" stop-color="#008b00"/>
      <stop offset="1" stop-color="#6cc329"/>
    </linearGradient>
    <linearGradient id="linear-gradient3" x1="411.9" y1="267.9" x2="363.2" y2="201.2" gradientTransform="translate(0 499.9) scale(1 -1)" gradientUnits="userSpaceOnUse">
      <stop offset="0" stop-color="#008c00"/>
      <stop offset="1" stop-color="#48bf21"/>
    </linearGradient>
    <radialGradient id="radial-gradient1" cx="-24.4" cy="687.8" fx="-24.4" fy="687.8" r="17.9" gradientTransform="translate(-10411 590.8) rotate(90.1) scale(15.5 -15.5)" gradientUnits="userSpaceOnUse">
      <stop offset="0" stop-color="#fafafa"/>
      <stop offset=".5" stop-color="#efefef"/>
      <stop offset=".8" stop-color="#c0bec0"/>
      <stop offset="1" stop-color="#879288"/>
    </radialGradient>
    <linearGradient id="linear-gradient4" x1="145.5" y1="449.7" x2="149.7" y2="305.8" gradientTransform="translate(0 499.9) scale(1 -1)" gradientUnits="userSpaceOnUse">
      <stop offset="0" stop-color="#008b00"/>
      <stop offset="1" stop-color="#6cc329"/>
    </linearGradient>
    <linearGradient id="linear-gradient5" x1="88.7" y1="267.9" x2="137.3" y2="201.2" gradientTransform="translate(0 499.9) scale(1 -1)" gradientUnits="userSpaceOnUse">
      <stop offset="0" stop-color="#008c00"/>
      <stop offset="1" stop-color="#48bf21"/>
    </linearGradient>
    <linearGradient id="linear-gradient6" x1="355" y1="449.7" x2="350.8" y2="305.8" gradientTransform="translate(0 499.9) scale(1 -1)" gradientUnits="userSpaceOnUse">
      <stop offset="0" stop-color="#008b00"/>
      <stop offset="1" stop-color="#6cc329"/>
    </linearGradient>
    <linearGradient id="linear-gradient7" x1="411.9" y1="267.9" x2="363.2" y2="201.2" gradientTransform="translate(0 499.9) scale(1 -1)" gradientUnits="userSpaceOnUse">
      <stop offset="0" stop-color="#008c00"/>
      <stop offset="1" stop-color="#48bf21"/>
    </linearGradient>
  </defs>
  <g class="st10">
    <circle class="st3" cx="250" cy="250" r="250"/>
    <path class="st9" d="M84.8,438.1c-.3-.2-.7-.6-1-.9-6.5-5.9-17-15.2-28-29.2-9.5-20.6-4.1-55.3,19.3-104.2,33-69,85.9-139.2,107.5-164-6.2-6.9-25.3-25.7-52.3-46-27.1-20.3-46.8-22.4-53.6-21.2,6.3-6.9,21.1-19.8,33.6-28.6,38.5-19,109.6,13.1,140.1,31.5v126.2c-77.7,59.8-149.6,152.1-164.1,188.1-11.1,27.5-6.7,42.7-2.4,47.5.4.3.7.6,1,.9Z"/>
    <path class="st1" d="M84.8,438.1c-.3-.2-.7-.6-1-.9-6.5-5.9-17-15.2-28-29.2-9.5-20.6-4.1-55.3,19.3-104.2,38.3-80.2,107.5-164,107.5-164,0,0,12.4,30.7,40.4,83.9-72.2,64-122.3,130.2-136.8,166.1-11.1,27.5-6.7,42.7-2.4,47.5.4.3.7.6,1,.9Z"/>
    <path class="st0" d="M415.7,438.1c.3-.2.7-.6,1-.9,6.5-5.9,17-15.2,28-29.2,9.5-20.6,4.1-55.3-19.3-104.2-33-69-85.9-139.2-107.5-164,6.2-6.9,25.3-25.7,52.3-46,27.1-20.3,46.8-22.4,53.6-21.2-6.3-6.9-21.1-19.8-33.6-28.6-38.5-19-109.6,13.1-140.1,31.5v126.2c77.7,59.8,149.6,152.1,164.1,188.1,11.1,27.5,6.7,42.7,2.4,47.5-.4.3-.7.6-1,.9Z"/>
    <path class="st7" d="M415.7,438.1c.3-.2.7-.6,1-.9,6.5-5.9,17-15.2,28-29.2,9.5-20.6,4.1-55.3-19.3-104.2-38.3-80.2-107.5-164-107.5-164,0,0-12.4,30.7-40.4,83.9,72.2,64,122.3,130.2,136.8,166.1,11.1,27.5,6.7,42.7,2.4,47.5-.4.3-.7.6-1,.9Z"/>
  </g>
  <circle class="st2" cx="250" cy="250" r="250"/>
  <path class="st5" d="M84.8,438.1c-.3-.2-.7-.6-1-.9-6.5-5.9-17-15.2-28-29.2-9.5-20.6-4.1-55.3,19.3-104.2,33-69,85.9-139.2,107.5-164-6.2-6.9-25.3-25.7-52.3-46-27.1-20.3-46.8-22.4-53.6-21.2,6.3-6.9,21.1-19.8,33.6-28.6,38.5-19,109.6,13.1,140.1,31.5v126.2c-77.7,59.8-149.6,152.1-164.1,188.1-11.1,27.5-6.7,42.7-2.4,47.5.4.3.7.6,1,.9Z"/>
  <path class="st6" d="M84.8,438.1c-.3-.2-.7-.6-1-.9-6.5-5.9-17-15.2-28-29.2-9.5-20.6-4.1-55.3,19.3-104.2,38.3-80.2,107.5-164,107.5-164,0,0,12.4,30.7,40.4,83.9-72.2,64-122.3,130.2-136.8,166.1-11.1,27.5-6.7,42.7-2.4,47.5.4.3.7.6,1,.9Z"/>
  <path class="st8" d="M415.7,438.1c.3-.2.7-.6,1-.9,6.5-5.9,17-15.2,28-29.2,9.5-20.6,4.1-55.3-19.3-104.2-33-69-85.9-139.2-107.5-164,6.2-6.9,25.3-25.7,52.3-46,27.1-20.3,46.8-22.4,53.6-21.2-6.3-6.9-21.1-19.8-33.6-28.6-38.5-19-109.6,13.1-140.1,31.5v126.2c77.7,59.8,149.6,152.1,164.1,188.1,11.1,27.5,6.7,42.7,2.4,47.5-.4.3-.7.6-1,.9Z"/>
  <path class="st4" d="M415.7,438.1c.3-.2.7-.6,1-.9,6.5-5.9,17-15.2,28-29.2,9.5-20.6,4.1-55.3-19.3-104.2-38.3-80.2-107.5-164-107.5-164,0,0-12.4,30.7-40.4,83.9,72.2,64,122.3,130.2,136.8,166.1,11.1,27.5,6.7,42.7,2.4,47.5-.4.3-.7.6-1,.9Z"/>
</svg>