<?xml version="1.0" encoding="UTF-8"?>
<svg id="Layer_1" xmlns="http://www.w3.org/2000/svg" version="1.1" xmlns:xlink="http://www.w3.org/1999/xlink" viewBox="0 0 500 500">
  <!-- Generator: Adobe Illustrator 29.1.0, SVG Export Plug-In . SVG Version: 2.1.0 Build 142)  -->
  <defs>
    <style>
      .st0 {
        fill: #fff;
      }

      .st1 {
        mask: url(#mask);
      }

      .st2 {
        display: none;
        fill: #1c212a;
      }
    </style>
    <mask id="mask" x="137.3" y="135.3" width="222" height="252.2" maskUnits="userSpaceOnUse">
      <g id="svg_1">
        <rect class="st0" x="247.8" y="247.5" width="12" height="14"/>
        <path d="M259.1,248.6l-3.9,7.7v4.2h-2.7v-4.2l-3.8-7.7h3.1l1.9,4.4c0,0,.1.4.3,1h0c0-.4.2-.7.3-.9l2-4.5s2.8,0,2.8,0Z"/>
      </g>
    </mask>
  </defs>
  <g id="Layer_11" data-name="Layer_1">
    <g>
      <g>
        <path class="st0" d="M250,0C111.9,0,0,111.9,0,250s111.9,250,250,250,250-111.9,250-250S388.1,0,250,0ZM275.2,297.2v88.2h-55.9v-87.2l-78.7-160.8h63.8l39.9,92.5c.7,1.7,2.6,8.5,5.7,20.2h.7c1.5-8.3,3.3-14.8,5.4-19.5l40.6-93.2h59.1l-80.8,159.8Z"/>
        <path class="st2" d="M256.1,230.6c-2.1,4.7-3.9,11.2-5.4,19.5h-.7c-3.1-11.8-5-18.5-5.7-20.2l-39.9-92.5h-63.8l78.7,160.8v87.2h55.9v-88.2l80.8-159.8h-59.1l-40.6,93.2Z"/>
      </g>
      <g class="st1">
        <path class="st2" d="M355.9,137.4l1.9.9,1.5-3h-3.4v2.1ZM275.2,297.2l-1.9-.9-.2.4v.5h2.1ZM275.2,385.4v2.1h2.1v-2.1h-2.1ZM219.3,385.4h-2.1v2.1h2.1v-2.1ZM219.3,298.3h2.1v-.5l-.2-.4s-1.9.9-1.9.9ZM140.6,137.4v-2.1h-3.3l1.5,3,1.9-.9ZM204.4,137.4l1.9-.8-.5-1.3h-1.4v2.1ZM244.4,230l1.9-.8h0c0,0-1.9.8-1.9.8ZM250.1,250.2l-2,.5.4,1.5h1.6v-2.1ZM250.8,250.2v2.1h1.7l.3-1.7-2.1-.4ZM256.1,230.6l1.9.8h0s-1.9-.8-1.9-.8ZM296.8,137.4v-2.1h-1.4l-.5,1.2s1.9.8,1.9.8ZM354.1,136.5l-80.8,159.8,3.7,1.9,80.8-159.8s-3.7-1.9-3.7-1.9ZM273.1,297.2v88.2h4.2v-88.2s-4.2,0-4.2,0ZM275.2,383.3h-55.9v4.2h55.9v-4.2ZM221.4,385.4v-87.2h-4.2v87.2h4.2ZM221.2,297.3l-78.7-160.8-3.7,1.8,78.7,160.8,3.7-1.8ZM140.6,139.5h63.8v-4.2h-63.8v4.2ZM202.5,138.3l39.9,92.5,3.8-1.6-39.9-92.5-3.8,1.7ZM242.4,230.7c.6,1.6,2.5,8.2,5.6,20l4-1.1c-3.1-11.7-5-18.6-5.8-20.5,0,0-3.9,1.5-3.9,1.5ZM250.1,252.3h.7v-4.2h-.7v4.2ZM252.8,250.6c1.5-8.2,3.2-14.6,5.2-19.1l-3.8-1.7c-2.2,4.9-4,11.6-5.5,20,0,0,4.1.7,4.1.7ZM258.1,231.5l40.6-93.2-3.8-1.7-40.6,93.2s3.8,1.7,3.8,1.7ZM296.8,139.5h59.1v-4.2h-59.1s0,4.2,0,4.2Z"/>
      </g>
    </g>
  </g>
</svg>