<?xml version="1.0" encoding="UTF-8"?>
<svg id="Layer_1" xmlns="http://www.w3.org/2000/svg" version="1.1" xmlns:xlink="http://www.w3.org/1999/xlink" viewBox="0 0 500 500">
  <!-- Generator: Adobe Illustrator 29.1.0, SVG Export Plug-In . SVG Version: 2.1.0 Build 142)  -->
  <defs>
    <style>
      .st0 {
        fill: #fff;
      }

      .st1, .st2 {
        fill: none;
      }

      .st2 {
        stroke: #fff;
        stroke-width: 20px;
      }

      .st3 {
        clip-path: url(#clippath);
      }
    </style>
    <clipPath id="clippath">
      <rect class="st1" x="53.4" width="393.2" height="500"/>
    </clipPath>
  </defs>
  <g class="st3">
    <g>
      <path class="st2" d="M364,390.9c0,53.7-50,99.3-114.4,99.3s-114.4-45.6-114.4-99.3v-174.6c0-53.7,50-99.3,114.4-99.3s114.4,45.6,114.4,99.3v174.6Z"/>
      <path class="st0" d="M107.2,29.8c-.5-4.6-2.2-8.1-5.1-10.4s-7.3-3.4-13.1-3.4c-10.8,0-16.1,3.7-16.1,11.1s1.1,4.9,3.3,6.6c2.2,1.8,5.8,3.3,10.8,4.5,5.8,1.4,10.9,2.7,15.2,3.8,4.3,1.2,8.2,2.6,11.8,4.1,2,.8,3.9,1.8,5.6,3.1,1.8,1.2,3.3,2.8,4.5,4.6,1.2,1.8,2.2,4,2.9,6.6.7,2.6,1.1,5.7,1.1,9.3s-.9,8.3-2.7,11.6c-1.8,3.4-4.3,6.2-7.4,8.6-3.1,2.3-6.8,4.1-11,5.3-4.2,1.2-8.6,1.8-13.3,1.8-13.2,0-23.2-2.6-29.8-7.7-6.6-5.1-10.2-12.7-10.5-22.7h18.3c.1,4.7,2,8.3,5.7,11,3.7,2.7,8.3,4,13.9,4s10.6-1.1,13.7-3.3c3.1-2.2,4.6-5.2,4.6-8.9s-.2-2.8-.6-4.1c-.4-1.2-1.1-2.3-2.1-3.4-1.1-1-2.5-1.9-4.3-2.7s-4.2-1.5-7.1-2.1c-6.9-1.5-13-2.9-18-4.5-5.1-1.5-9.2-3.4-12.5-5.6-3.3-2.2-5.7-5-7.3-8.2-1.6-3.2-2.3-7.3-2.3-12.2s.7-7.3,2-10.6c1.4-3.3,3.5-6.1,6.3-8.6,2.9-2.4,6.3-4.3,10.5-5.7s9.1-2.1,14.7-2.1,10.4.7,14.8,2.1,8.2,3.4,11.3,6c3.1,2.6,5.6,5.8,7.3,9.4,1.7,3.7,2.7,7.8,2.9,12.3h-18.1Z"/>
      <path class="st0" d="M186.6,93.9v-40.8h-35.5v40.8h-19V3h19v34.2h35.5V3h19.2v90.9h-19.2Z"/>
      <path class="st0" d="M274.9,93.9l-5.7-18.8h-33.6l-6.4,18.8h-20.1L241.5,3h22l32.1,90.9h-20.7ZM252.3,23.4h-.2l-11.6,36.1h23.1l-11.4-36.1Z"/>
      <path class="st0" d="M352.1,93.9v-23.4c0-4.4-1-7.5-3-9.4-2-1.9-5.8-2.8-11.2-2.8h-20.3v35.6h-18.5V3h46.2c4.2,0,8,.6,11.4,2,3.4,1.3,6.4,3.1,8.8,5.5,2.5,2.3,4.4,5.1,5.7,8.4,1.3,3.2,2,6.7,2,10.5s-1.2,9.3-3.5,13.1c-2.3,3.8-5.7,6.4-10.1,8,4,1.3,6.9,3.2,8.6,5.9,1.7,2.7,2.5,6.6,2.5,11.9v25.7h-18.7ZM317.7,18.8v24.2h23.8c5.1,0,8.7-1.1,10.8-3.4,2.1-2.3,3.1-5.2,3.1-8.6s-1-6.5-3.1-8.8c-2-2.3-5.4-3.4-10.2-3.4h-24.5Z"/>
      <path class="st0" d="M377.6,93.9V3h66.8v15.9h-48.3v19.4h44.5v16h-44.5v23.4h50.5v16.2h-69Z"/>
    </g>
  </g>
</svg>